<svg xmlns="http://www.w3.org/2000/svg" xmlns:xlink="http://www.w3.org/1999/xlink" width="301" height="231" viewBox="0 0 301 231">
  <defs>
    <clipPath id="clip-Plan_de_travail_8">
      <rect width="301" height="231"/>
    </clipPath>
  </defs>
  <g id="Plan_de_travail_8" data-name="Plan de travail – 8" clip-path="url(#clip-Plan_de_travail_8)">
    <g id="Groupe_362" data-name="Groupe 362" transform="translate(-851.383 -358.189)">
      <g id="Groupe_358" data-name="Groupe 358" transform="translate(905.383 383.251)">
        <circle id="Ellipse_21" data-name="Ellipse 21" cx="42.103" cy="42.103" r="42.103" transform="translate(69.365 56.5)" fill="none" stroke="#f3525d" stroke-miterlimit="10" stroke-width="1"/>
        <g id="Groupe_346" data-name="Groupe 346" transform="translate(140.632 78.829)">
          <circle id="Ellipse_18" data-name="Ellipse 18" cx="7.875" cy="7.875" r="7.875" transform="translate(5.065)" fill="#3dc9a5"/>
          <path id="Tracé_2582" data-name="Tracé 2582" d="M1075.334,511.976a12.939,12.939,0,1,1,25.879-.024v.024" transform="translate(-1075.334 -482.052)" fill="#3dc9a5"/>
        </g>
        <g id="Groupe_347" data-name="Groupe 347" transform="translate(98.529 44.637)">
          <circle id="Ellipse_18-2" data-name="Ellipse 18" cx="7.875" cy="7.875" r="7.875" transform="translate(5.065)" fill="#081d82"/>
          <path id="Tracé_2582-2" data-name="Tracé 2582" d="M1024.453,470.657a12.939,12.939,0,0,1,25.879-.025v.025" transform="translate(-1024.453 -440.733)" fill="#081d82"/>
        </g>
        <g id="Groupe_348" data-name="Groupe 348" transform="translate(92.514 111.616)">
          <circle id="Ellipse_16" data-name="Ellipse 16" cx="10.631" cy="10.631" r="10.631" transform="translate(6.836)" fill="#e3a437"/>
          <path id="Tracé_2580" data-name="Tracé 2580" d="M1017.184,563.31a17.468,17.468,0,1,1,34.936-.033v.033" transform="translate(-1017.184 -522.913)" fill="#e3a437"/>
        </g>
        <g id="Groupe_349" data-name="Groupe 349" transform="translate(57.334 80.839)">
          <circle id="Ellipse_20" data-name="Ellipse 20" cx="7.875" cy="7.875" r="7.875" transform="translate(5.064)" fill="#f3525d"/>
          <path id="Tracé_2584" data-name="Tracé 2584" d="M974.67,514.4a12.939,12.939,0,0,1,25.879-.024v.024" transform="translate(-974.67 -484.482)" fill="#f3525d"/>
        </g>
        <circle id="Ellipse_22" data-name="Ellipse 22" cx="31.454" cy="31.454" r="31.454" transform="translate(120.571 12.679)" fill="none" stroke="#f3525d" stroke-miterlimit="10" stroke-width="0.747"/>
        <g id="Groupe_350" data-name="Groupe 350" transform="translate(173.813 21.701)">
          <circle id="Ellipse_18-3" data-name="Ellipse 18" cx="5.883" cy="5.883" r="5.883" transform="translate(3.783)" fill="#3dc9a5"/>
          <path id="Tracé_2582-3" data-name="Tracé 2582" d="M1115.432,434.475a9.667,9.667,0,0,1,19.333-.017v.017" transform="translate(-1115.432 -412.12)" fill="#3dc9a5"/>
        </g>
        <g id="Groupe_351" data-name="Groupe 351" transform="translate(161.447 55.316)">
          <circle id="Ellipse_18-4" data-name="Ellipse 18" cx="5.883" cy="5.883" r="5.883" transform="translate(3.784)" fill="#081d82"/>
          <path id="Tracé_2582-4" data-name="Tracé 2582" d="M1100.488,475.1a9.667,9.667,0,0,1,19.333-.018v.018" transform="translate(-1100.488 -452.743)" fill="#081d82"/>
        </g>
        <g id="Groupe_352" data-name="Groupe 352" transform="translate(116.71 21.993)">
          <circle id="Ellipse_16-2" data-name="Ellipse 16" cx="4.808" cy="4.808" r="4.808" transform="translate(3.092)" fill="#e3a437"/>
          <path id="Tracé_2580-2" data-name="Tracé 2580" d="M1046.424,430.259a7.9,7.9,0,0,1,15.8-.015v.015" transform="translate(-1046.424 -411.989)" fill="#e3a437"/>
        </g>
        <g id="Groupe_353" data-name="Groupe 353" transform="translate(142.368)">
          <circle id="Ellipse_20-2" data-name="Ellipse 20" cx="5.883" cy="5.883" r="5.883" transform="translate(3.782)" fill="#f3525d"/>
          <path id="Tracé_2584-2" data-name="Tracé 2584" d="M1077.432,408.25a9.666,9.666,0,1,1,19.333-.018v.018" transform="translate(-1077.432 -385.895)" fill="#f3525d"/>
        </g>
        <circle id="Ellipse_23" data-name="Ellipse 23" cx="42.103" cy="42.103" r="42.103" transform="translate(11.346 60.018)" fill="none" stroke="#f3525d" stroke-miterlimit="10" stroke-width="1"/>
        <g id="Groupe_354" data-name="Groupe 354" transform="translate(85.589 76.473)">
          <circle id="Ellipse_18-5" data-name="Ellipse 18" cx="7.875" cy="7.875" r="7.875" transform="translate(5.065)" fill="#3dc9a5"/>
          <path id="Tracé_2582-5" data-name="Tracé 2582" d="M1008.816,509.129a12.939,12.939,0,1,1,25.879-.024v.024" transform="translate(-1008.816 -479.205)" fill="#3dc9a5"/>
        </g>
        <g id="Groupe_355" data-name="Groupe 355" transform="translate(39.766 121.7)">
          <circle id="Ellipse_18-6" data-name="Ellipse 18" cx="7.875" cy="7.875" r="7.875" transform="translate(5.065)" fill="#081d82"/>
          <path id="Tracé_2582-6" data-name="Tracé 2582" d="M953.439,563.785a12.939,12.939,0,1,1,25.879-.024v.024" transform="translate(-953.439 -533.861)" fill="#081d82"/>
        </g>
        <g id="Groupe_356" data-name="Groupe 356" transform="translate(42.131 44.927)">
          <circle id="Ellipse_16-3" data-name="Ellipse 16" cx="6.436" cy="6.436" r="6.436" transform="translate(4.139)" fill="#e3a437"/>
          <path id="Tracé_2580-3" data-name="Tracé 2580" d="M956.3,464.892a10.575,10.575,0,1,1,21.15-.02v.02" transform="translate(-956.298 -440.436)" fill="#e3a437"/>
        </g>
        <g id="Groupe_357" data-name="Groupe 357" transform="translate(0 83.642)">
          <circle id="Ellipse_20-3" data-name="Ellipse 20" cx="7.875" cy="7.875" r="7.875" transform="translate(5.063)" fill="#f3525d"/>
          <path id="Tracé_2584-3" data-name="Tracé 2584" d="M905.383,517.793a12.939,12.939,0,1,1,25.879-.025v.025" transform="translate(-905.383 -487.869)" fill="#f3525d"/>
        </g>
      </g>
      <g id="Groupe_359" data-name="Groupe 359" transform="translate(916.635 413.841)">
        <path id="Tracé_2603" data-name="Tracé 2603" d="M935.172,430.137a3.374,3.374,0,0,0-.767-.579,14.151,14.151,0,0,0-1.329-.7,13.808,13.808,0,0,0-1.688-.647,9.582,9.582,0,0,0-1.908-.392v5.9l.852.2q1.771.478,3.221,1.023a8.757,8.757,0,0,1,2.454,1.364,5.632,5.632,0,0,1,1.551,1.959,6.508,6.508,0,0,1,.545,2.812,7.09,7.09,0,0,1-.664,3.2,6.048,6.048,0,0,1-1.806,2.182,8.039,8.039,0,0,1-2.659,1.278,13.847,13.847,0,0,1-3.187.494v3.749h-2.045V448.2a17.715,17.715,0,0,1-4.653-.971,16.827,16.827,0,0,1-4.108-2.1l2.079-4.057a6.545,6.545,0,0,0,.938.717,11.387,11.387,0,0,0,1.6.869,20.22,20.22,0,0,0,2.079.8,11.61,11.61,0,0,0,2.368.511v-5.863c-.2-.045-.409-.1-.613-.153s-.409-.12-.614-.188a22.008,22.008,0,0,1-3.016-1.04,7.913,7.913,0,0,1-2.13-1.329,4.969,4.969,0,0,1-1.279-1.772,6.125,6.125,0,0,1-.426-2.4,7.451,7.451,0,0,1,.6-3.05,6.837,6.837,0,0,1,1.636-2.3,7.62,7.62,0,0,1,2.472-1.5,11.165,11.165,0,0,1,3.067-.682v-3.477h2.045v3.443a14.053,14.053,0,0,1,4.142.92,16.631,16.631,0,0,1,3.323,1.738Zm-10.363.341a2.05,2.05,0,0,0,.8,1.755,7.832,7.832,0,0,0,2.436,1.074v-5.522Q924.809,427.99,924.81,430.478Zm8.283,11.078a2.066,2.066,0,0,0-.954-1.807,10.528,10.528,0,0,0-2.659-1.192v5.487Q933.092,443.942,933.093,441.556Z" transform="translate(-918.981 -420.218)" fill="#3dc9a5"/>
      </g>
      <g id="Groupe_361" data-name="Groupe 361" transform="translate(958.911 533.58)">
        <path id="Tracé_2604" data-name="Tracé 2604" d="M1004.133,567.987a8.856,8.856,0,0,0-2.444-1.724,31.8,31.8,0,0,1,5.51-1.342,31.85,31.85,0,0,1-1.342,5.509A8.9,8.9,0,0,0,1004.133,567.987Z" transform="translate(-975.525 -564.92)" fill="#081d82"/>
        <g id="Groupe_360" data-name="Groupe 360" transform="translate(0 15.165)">
          <path id="Tracé_2605" data-name="Tracé 2605" d="M973.782,587.464c.955-1.354,1.956-2.714,2.97-4.032l-3.675-.185-3.007,3.006,3.581,3.581,0,0A1.9,1.9,0,0,1,973.782,587.464Z" transform="translate(-970.07 -583.247)" fill="#081d82"/>
          <path id="Tracé_2606" data-name="Tracé 2606" d="M988.447,594.995c-1.335,1.027-2.713,2.041-4.085,3.01a1.938,1.938,0,0,1-2.308.184l-.005,0,3.581,3.58,3.006-3.006Z" transform="translate(-972.137 -585.274)" fill="#081d82"/>
        </g>
        <rect id="Rectangle_50" data-name="Rectangle 50" width="1.095" height="11.317" rx="0.401" transform="translate(1.261 22.409) rotate(-45)" fill="#081d82"/>
        <path id="Tracé_2607" data-name="Tracé 2607" d="M977.914,600.208a.3.3,0,0,1-.418.05l-5.909-5.909a.3.3,0,0,1,.051-.418l.306-.306a.3.3,0,0,1,.418-.05l5.909,5.909a.3.3,0,0,1-.051.418Z" transform="translate(-970.321 -569.852)" fill="#081d82"/>
        <path id="Tracé_2608" data-name="Tracé 2608" d="M1000.761,572.167a8.28,8.28,0,0,0-5.049-5.05,29.936,29.936,0,0,0-10.67,6.633,82.151,82.151,0,0,0-6.621,7.724c-1.014,1.319-2.015,2.679-2.97,4.032a1.9,1.9,0,0,0-.13,2.368l.026.03,4.626,4.627a1.026,1.026,0,0,0,.09.079,1.937,1.937,0,0,0,2.308-.183c1.372-.968,2.749-1.983,4.084-3.01a82.079,82.079,0,0,0,7.672-6.58A29.94,29.94,0,0,0,1000.761,572.167ZM990,577.879a3.149,3.149,0,1,1,4.453,0A3.148,3.148,0,0,1,990,577.879Z" transform="translate(-970.915 -565.299)" fill="#081d82"/>
      </g>
      <path id="Tracé_2609" data-name="Tracé 2609" d="M1006.03,405.733c-5.626.072-11.692,3.643-11.708,11.31,0,4.351,1.737,7.053,3.269,9.44a16.857,16.857,0,0,0,1.465,1.9,7.319,7.319,0,0,1,1.9,3.322,10.487,10.487,0,0,1,.252,1.662,5.928,5.928,0,0,1-.233,1.441c-.166.66-.309,1.233.036,1.676a.969.969,0,0,0,.21.2.246.246,0,0,0,.064.127l.7,1.49a1.174,1.174,0,0,0,.254.36.927.927,0,0,0-.055,1.424.894.894,0,0,0-.113.437.827.827,0,0,0,.789.858,3.941,3.941,0,0,0,6.914,0,.827.827,0,0,0,.789-.858.884.884,0,0,0-.113-.437.9.9,0,0,0,.307-.688.891.891,0,0,0-.365-.733,1.239,1.239,0,0,0,.257-.362l.7-1.49a.209.209,0,0,0,.075-.133v0a.933.933,0,0,0,.2-.191c.345-.443.2-1.015.036-1.676a5.967,5.967,0,0,1-.233-1.417,10.62,10.62,0,0,1,.26-1.72,7.35,7.35,0,0,1,1.9-3.292,16.5,16.5,0,0,0,1.464-1.9c1.532-2.384,3.269-5.087,3.269-9.448C1018.1,409.163,1011.778,405.661,1006.03,405.733Zm3.75,35h-6.914c-.064,0-.136-.086-.136-.205s.072-.2.136-.2h6.914c.064,0,.136.086.136.2S1009.844,440.73,1009.78,440.73Zm.169-1.1h-7.255c-.075,0-.158-.094-.158-.229s.083-.23.158-.23h7.255c.078,0,.161.094.161.23S1010.027,439.629,1009.949,439.629Zm-1.756,2.639a3.57,3.57,0,0,1-1.87.512,3.089,3.089,0,0,1-2.727-1.4h5.457A2.49,2.49,0,0,1,1008.193,442.268Zm2.359-5.274-.487,1.034a.756.756,0,0,1-.694.4h-6.1a.764.764,0,0,1-.694-.4l-.487-1.032c.059,0,.122.006.189.012h0c.185.017.391.025.62.025h.117c.862.027,2.021.041,3.264.041h.02c.007,0,.012,0,.019,0s.012,0,.017,0h.016c1.681,0,2.8-.012,3.557-.045.058,0,.113,0,.169,0,.072,0,.141-.006.208-.012C1010.386,437.008,1010.472,437,1010.552,436.994Zm-4.516-4.724a4.711,4.711,0,0,1-.606-.5,3.867,3.867,0,0,1,.614-.587h0l-.01,1.088Zm.036-4.293a7.552,7.552,0,0,1-.882-.52,5.244,5.244,0,0,1,.89-.487h0l-.009,1.009Zm.031-3.5a3.2,3.2,0,0,1-.661-.393,2.736,2.736,0,0,1,.669-.556h0l-.008.951Zm.415-3.106c.047.105.1.2.141.29a1.881,1.881,0,0,1,.2.5,1.226,1.226,0,0,1-.336.3Zm.036,4.046h0a3.8,3.8,0,0,1,.464.255,1.621,1.621,0,0,1-.46.329Zm.074,8.622-.005-.543h0a4.824,4.824,0,0,1,.42.346c-.105.058-.257.13-.415.2Zm-.036-4.132-.007-.9h0a1.841,1.841,0,0,1,.523.4,3.045,3.045,0,0,1-.515.5Zm-.585,5.9h0a1.642,1.642,0,0,1-.556-.473,2.234,2.234,0,0,1,.561-.321h0Zm8.5-9.676a16.381,16.381,0,0,1-1.411,1.831,7.973,7.973,0,0,0-2.036,3.557,10.9,10.9,0,0,0-.28,1.853,6.491,6.491,0,0,0,.252,1.6c.124.5.232.924.083,1.115-.078.1-.274.213-.76.265l-.1.008h-.025l-.492.02h-2.534a3.512,3.512,0,0,1-.56-.224l-.012-1.41h0c.711-.3,1.136-.484,1.136-.857,0-.343-.376-.644-1.155-1.2l-.017-1.943c.771-.616,1.172-.967,1.172-1.324,0-.42-.442-.75-1.192-1.168h0l-.013-1.51h0c.628-.313,1.134-.641,1.134-1.129,0-.367-.434-.58-1.152-.92l-.012-1.439h0c.556-.371.974-.672.974-1.057a1.825,1.825,0,0,0-.266-.824,5.179,5.179,0,0,1-.592-2.644.326.326,0,1,0-.653,0,6.936,6.936,0,0,0,.143,1.49l-.021,2.523-.083.055c-.675.443-1.262.827-1.262,1.32,0,.42.5.692,1.322,1.084h0l-.009,1.045h0c-.091.044-.174.083-.246.116-.755.354-1.35.636-1.35,1.115,0,.381.426.628,1.317,1.1l.257.139h0l-.014,1.625h0c-.83.661-1.3,1.057-1.3,1.441,0,.357.412.673,1.273,1.283l0,0-.011,1.227c-.744.315-1.192.561-1.228.959s.4.805.908,1.126h-2.791c-.18-.008-.346-.014-.492-.02h-.025l-.1-.008c-.487-.052-.684-.165-.761-.265-.149-.191-.041-.62.084-1.115a6.4,6.4,0,0,0,.251-1.626,11.029,11.029,0,0,0-.271-1.792,7.943,7.943,0,0,0-2.041-3.593,15.334,15.334,0,0,1-1.411-1.831c-1.485-2.31-3.167-4.926-3.167-9.083.017-7.227,5.748-10.593,11.064-10.662h.171c5.41,0,11.255,3.316,11.462,10.66C1017.672,421.206,1015.99,423.822,1014.508,426.129Z" transform="translate(-15.343 -3.878)" fill="#f3525d"/>
    </g>
  </g>
</svg>
